# xmcd
#
# Track frame offsets:
#	150
#	18621
#	36555
#	80154
#	120640
#	161165
#	177579
#	206784
#	242480
#
# Disc length: 3648 seconds
#
# Revision: 0
# Processed by: cddbd v1.5.2PL0 Copyright (c) Steve Scherf et al.
# Submitted via: audiograbber 1.83.01
#
DISCID=820e3e09
DTITLE=Grateful Dead - 93-03-22 The Omni, Atlanta GA
DYEAR=1900
DGENRE=
TTITLE0=Help On The Way
TTITLE1=Slipknot!
TTITLE2=Franklin's Tower
TTITLE3=Little Red Rooster
TTITLE4=Althea
TTITLE5=Beat It On Down The Line
TTITLE6=Just Like Tom Thumb's Blues
TTITLE7=Lazy River Road
TTITLE8=Picasso Moon
EXTD=
EXTT0=
EXTT1=
EXTT2=
EXTT3=
EXTT4=
EXTT5=
EXTT6=
EXTT7=
EXTT8=
PLAYORDER=
